<?xml version="1.0" encoding="UTF-8" standalone="no"?>
<!DOCTYPE svg PUBLIC "-//W3C//DTD SVG 1.1//EN" "http://www.w3.org/Graphics/SVG/1.1/DTD/svg11.dtd">
<svg width="100%" height="100%" viewBox="0 0 800 250" version="1.1" xmlns="http://www.w3.org/2000/svg" xmlns:xlink="http://www.w3.org/1999/xlink" xml:space="preserve" xmlns:serif="http://www.serif.com/" style="fill-rule:evenodd;clip-rule:evenodd;stroke-linejoin:round;stroke-miterlimit:2;">
    <g transform="matrix(13.0591,0,0,13.0591,-815.888,-2037.87)">
        <text x="63.644px" y="171.578px" style="font-family:'LucidaConsole', 'Lucida Console', monospace;font-stretch:semi-condensed;font-size:12px;">Kn</text>
    </g>
    <g transform="matrix(13.0591,0,0,13.0591,-2168.67,-1880.75)">
        <text x="197.036px" y="159.547px" style="font-family:'LucidaConsole', 'Lucida Console', monospace;font-stretch:semi-condensed;font-size:12px;">edge</text>
    </g>
    <g transform="matrix(0.768947,0,0,1,20.7513,-179.897)">
        <rect x="9.765" y="391.805" width="746.469" height="13.078"/>
    </g>
    <g id="Warstwa_x0020_1" transform="matrix(0.344921,0,0,0.344921,175.415,-64.06)">
        <g transform="matrix(1,0,0,1,70.4828,92.6379)">
            <path d="M444.968,138.175C634.457,495.167 497.703,705.791 310.317,707.428C395.326,706.598 465.446,658.068 465.446,623.613C465.446,588.86 452.79,488.074 308.975,487.805C165.159,487.535 154.006,588.86 154.006,623.613C154.006,644.459 178.512,670.457 216.683,687.927C81.2,626.797 1.557,426.248 155.396,145.424C168.895,120.782 229.809,202.386 294.363,205.815C359.56,209.278 438.022,125.088 444.968,138.175ZM307.113,707.439C306.242,707.444 305.374,707.461 304.499,707.448C303.231,707.429 301.971,707.361 300.705,707.321C302.829,707.391 304.966,707.429 307.113,707.439ZM299.739,707.29C285.858,706.798 272.166,705.02 258.794,702.004C271.728,704.899 285.456,706.762 299.739,707.29ZM257.825,701.784C255.983,701.359 254.146,700.919 252.315,700.448C254.136,700.914 255.972,701.361 257.825,701.784Z" style="fill:rgb(0,122,255);"/>
        </g>
        <g transform="matrix(1,0,0,1,70.4828,92.6379)">
            <path d="M364.669,687.815C378.155,687.815 389.088,699.001 389.088,712.798C389.088,714.087 388.993,715.353 388.809,716.588L389.554,716.588L385.361,722.858L381.169,729.127L376.976,722.858L372.924,716.795L368.779,722.858L364.491,729.127L360.205,722.858L356.233,717.051L352.436,722.858L348.337,729.127L344.238,722.858L340.139,716.588L340.529,716.588C340.345,715.353 340.249,714.087 340.249,712.798C340.249,699.001 351.183,687.815 364.669,687.815Z" style="fill:rgb(153,153,153);"/>
        </g>
        <g transform="matrix(1,0,0,1,70.4828,92.6379)">
            <path d="M240.833,684.227C254.319,684.227 265.252,695.413 265.252,709.21C265.252,710.499 265.157,711.765 264.972,713L265.718,713L261.525,719.27L257.333,725.539L253.14,719.27L249.088,713.207L244.943,719.27L240.655,725.539L236.369,719.27L232.397,713.463L228.6,719.27L224.501,725.539L220.402,719.27L216.303,713L216.693,713C216.509,711.765 216.413,710.499 216.413,709.21C216.413,695.413 227.347,684.227 240.833,684.227Z" style="fill:rgb(153,153,153);"/>
        </g>
        <g transform="matrix(1,0,0,1,70.4828,92.6379)">
            <path d="M308.975,487.805C452.79,488.074 465.446,588.86 465.446,623.613C465.446,658.367 394.108,707.448 308.106,707.448C222.104,707.448 154.006,658.367 154.006,623.613C154.006,588.86 165.159,487.535 308.975,487.805Z" style="fill:rgb(130,190,255);"/>
        </g>
        <g transform="matrix(1,0,0,1,70.4828,92.6379)">
            <path d="M203.653,240.273C252.098,240.273 292.324,275.441 300.211,321.637C307.441,274.666 348.036,238.694 397.032,238.694C451.138,238.694 494.999,282.556 494.999,336.661C494.999,390.766 451.138,434.628 397.032,434.628C348.587,434.628 308.362,399.46 300.474,353.264C293.244,400.236 252.649,436.207 203.653,436.207C149.548,436.207 105.686,392.345 105.686,338.24C105.686,284.135 149.548,240.273 203.653,240.273Z" style="fill:rgb(254,254,254);"/>
        </g>
        <g transform="matrix(1,0,0,1,70.4828,92.6379)">
            <path d="M273.29,384.644L300.369,353.819L328.491,384.605L299.534,425.387L273.29,384.644Z" style="fill:rgb(153,153,153);"/>
        </g>
        <g transform="matrix(1,0,0,1,70.4828,92.6379)">
            <path d="M202.256,317.285C222.381,317.285 238.696,332.423 238.696,351.096C238.696,369.769 221.63,331.559 201.504,331.559C181.379,331.559 165.815,369.769 165.815,351.096C165.815,332.423 182.13,317.285 202.256,317.285Z" style="fill:rgb(153,153,153);"/>
        </g>
        <g transform="matrix(1,0,0,1,70.4828,92.6379)">
            <path d="M400.677,316.039C420.803,316.039 437.117,331.176 437.117,349.849C437.117,368.522 420.052,330.313 399.926,330.313C379.801,330.313 364.237,368.522 364.237,349.849C364.237,331.176 380.552,316.039 400.677,316.039Z" style="fill:rgb(153,153,153);"/>
        </g>
        <g transform="matrix(1,0,0,1,70.4828,92.6379)">
            <path d="M111.352,508.456L164.062,553.613C163.615,554.159 163.327,554.953 163.327,556.032C163.327,556.577 162.615,557.429 162.103,559.077C162.077,559.164 162.052,559.249 162.029,559.334L107.142,512.311L111.352,508.456ZM168.864,557.727L177.96,565.519L173.75,569.375L166.69,563.326C167.823,562.201 167.211,561.318 167.918,559.856C168.374,558.914 168.696,558.508 168.864,557.727Z" style="fill:rgb(0,122,255);"/>
        </g>
        <g transform="matrix(1,0,0,1,70.4828,92.6379)">
            <path d="M160.511,485.219C160.511,503.21 181.769,647.503 158.534,643.284C136.566,639.296 102.296,582.973 84.245,527.367C62.789,461.278 72.949,426.567 72.003,409.138C70.176,375.495 160.511,445.246 160.511,485.219Z" style="fill:rgb(73,160,255);"/>
        </g>
        <g transform="matrix(3.12263,-2.5517,-1.74417,-2.75642,243.889,661.869)">
            <rect x="0" y="0" width="21.75" height="1.75" style="fill:rgb(0,122,255);"/>
        </g>
        <g transform="matrix(3.06244,2.62363,2.40559,-2.20298,304.418,606.514)">
            <rect x="0" y="0" width="21.75" height="1.75" style="fill:rgb(0,122,255);"/>
        </g>
        <g transform="matrix(3.12263,-2.5517,-1.74417,-2.75642,370.683,663.433)">
            <rect x="0" y="0" width="21.75" height="1.75" style="fill:rgb(0,122,255);"/>
        </g>
        <g transform="matrix(3.06244,2.62363,2.40559,-2.20298,429.61,608.181)">
            <rect x="0" y="0" width="21.75" height="1.75" style="fill:rgb(0,122,255);"/>
        </g>
        <g transform="matrix(1,0,0,1,70.4828,92.6379)">
            <path d="M422.34,567.639L445.275,548.898C445.317,549.008 445.365,549.117 445.42,549.224C445.651,549.814 445.93,550.296 446.239,550.684C446.32,551.214 446.553,551.729 446.944,552.159C447.139,552.408 447.481,553.227 448.055,553.944L425.392,572.463L422.34,567.639ZM451.581,548.879C451.501,548.303 451.235,547.688 450.727,547.072C450.726,547.071 450.324,546.091 449.511,545.436L490.257,512.14L493.309,516.964L452.504,550.308C452.252,549.822 451.941,549.324 451.581,548.879Z" style="fill:rgb(0,122,255);"/>
        </g>
        <g transform="matrix(3.06244,2.62363,2.40559,-2.20298,173.867,642.517)">
            <rect x="0" y="0" width="21.75" height="1.75" style="fill:rgb(0,122,255);"/>
        </g>
        <g transform="matrix(3.12263,-2.5517,-1.74417,-2.75642,240.132,699.436)">
            <rect x="0" y="0" width="21.75" height="1.75" style="fill:rgb(0,122,255);"/>
        </g>
        <g transform="matrix(3.06244,2.62363,2.40559,-2.20298,300.661,644.081)">
            <rect x="0" y="0" width="21.75" height="1.75" style="fill:rgb(0,122,255);"/>
        </g>
        <g transform="matrix(3.12263,-2.5517,-1.74417,-2.75642,366.924,701.001)">
            <rect x="0" y="0" width="21.75" height="1.75" style="fill:rgb(0,122,255);"/>
        </g>
        <g transform="matrix(3.06244,2.62363,2.40559,-2.20298,425.854,645.748)">
            <rect x="0" y="0" width="21.75" height="1.75" style="fill:rgb(0,122,255);"/>
        </g>
        <g transform="matrix(3.12263,-2.5517,-1.74417,-2.75642,492.117,702.668)">
            <rect x="0" y="0" width="21.75" height="1.75" style="fill:rgb(0,122,255);"/>
        </g>
        <g transform="matrix(3.06244,2.62363,2.40559,-2.20298,180.137,680.665)">
            <rect x="0" y="0" width="21.75" height="1.75" style="fill:rgb(0,122,255);"/>
        </g>
        <g transform="matrix(3.12263,-2.5517,-1.74417,-2.75642,246.402,737.585)">
            <rect x="0" y="0" width="21.75" height="1.75" style="fill:rgb(0,122,255);"/>
        </g>
        <g transform="matrix(3.06244,2.62363,2.40559,-2.20298,306.931,682.23)">
            <rect x="0" y="0" width="21.75" height="1.75" style="fill:rgb(0,122,255);"/>
        </g>
        <g transform="matrix(3.12263,-2.5517,-1.74417,-2.75642,373.195,739.15)">
            <rect x="0" y="0" width="21.75" height="1.75" style="fill:rgb(0,122,255);"/>
        </g>
        <g transform="matrix(1,0,0,1,70.4828,92.6379)">
            <path d="M472.336,637.599C460.976,636.423 446.539,597.191 446.611,528.694C446.656,485.917 444.864,478.4 461.423,455.118C481.898,426.33 527.23,386.202 534.79,405.599C534.937,405.979 543.468,477.321 525,537.375C508.242,591.87 473.319,637.7 472.336,637.599Z" style="fill:rgb(73,160,255);"/>
        </g>
        <g transform="matrix(3.06244,2.62363,2.40559,-2.20298,432.124,683.897)">
            <rect x="0" y="0" width="21.75" height="1.75" style="fill:rgb(0,122,255);"/>
        </g>
        <g transform="matrix(3.12263,-2.5517,-1.74417,-2.75642,498.387,740.816)">
            <rect x="0" y="0" width="21.75" height="1.75" style="fill:rgb(0,122,255);"/>
        </g>
        <g transform="matrix(1,0,0,1,70.4828,92.6379)">
            <path d="M181.767,666.613L243.621,616.068L246.673,620.891L186.398,670.146C185.083,668.595 183.502,667.426 181.767,666.613Z" style="fill:rgb(0,122,255);"/>
        </g>
        <g transform="matrix(3.06244,2.62363,2.40559,-2.20298,309.768,713.675)">
            <rect x="0" y="0" width="21.75" height="1.75" style="fill:rgb(0,122,255);"/>
        </g>
        <g transform="matrix(3.12263,-2.5517,-1.74417,-2.75642,376.032,770.594)">
            <rect x="0" y="0" width="21.75" height="1.75" style="fill:rgb(0,122,255);"/>
        </g>
        <g transform="matrix(1,0,0,1,70.4828,92.6379)">
            <path d="M368.688,618.849L429.97,671.35C428.257,672.206 426.711,673.41 425.464,674.952L364.478,622.704L368.688,618.849Z" style="fill:rgb(0,122,255);"/>
        </g>
        <g transform="matrix(1,0,0,1,70.4828,92.6379)">
            <path d="M212.8,685.528L242.419,661.324L245.47,666.147L218.063,688.543C217.145,687.899 216.138,687.362 215.056,686.956C214.353,686.412 213.598,685.934 212.8,685.528Z" style="fill:rgb(0,122,255);"/>
        </g>
        <g transform="matrix(1,0,0,1,70.4828,92.6379)">
            <path d="M242.294,662.437L293.998,706.734C291.458,706.423 288.889,706.343 286.339,706.566C285.855,706.501 285.383,706.453 284.919,706.417L238.084,666.292L242.294,662.437Z" style="fill:rgb(0,122,255);"/>
        </g>
        <g transform="matrix(1,0,0,1,70.4828,92.6379)">
            <path d="M315.469,706.806L369.213,662.889L372.264,667.712L324.333,706.88C323.508,706.865 322.674,706.893 321.839,706.958C319.77,706.533 317.598,706.494 315.469,706.806Z" style="fill:rgb(0,122,255);"/>
        </g>
        <g transform="matrix(1,0,0,1,70.4828,92.6379)">
            <path d="M367.486,664.106L396.988,689.381C394.944,689.885 393.087,690.842 391.475,692.119L363.276,667.961L367.486,664.106Z" style="fill:rgb(0,122,255);"/>
        </g>
    </g>
    <g transform="matrix(0.120033,0,0,1,680.967,-179.897)">
        <rect x="9.765" y="391.805" width="746.469" height="13.078"/>
    </g>
</svg>
